<svg width="40" height="41" viewBox="0 0 40 41" fill="none" xmlns="http://www.w3.org/2000/svg">
<g id="carbon:need">
<path id="Vector" d="M36.1814 21.7291C35.8395 21.3851 35.433 21.1121 34.9853 20.9257C34.5376 20.7393 34.0575 20.6431 33.5725 20.6427H33.5601C33.0731 20.6413 32.5905 20.7366 32.1406 20.923C31.6906 21.1095 31.2821 21.3835 30.9389 21.7291L24.8818 27.7861C24.8151 26.8547 24.3987 25.9829 23.7161 25.3457C23.0335 24.7085 22.1352 24.3529 21.2014 24.3503H12.5503C10.912 24.3523 9.34144 25.004 8.18301 26.1624C7.02458 27.3208 6.37291 28.8914 6.37095 30.5297V31.354L2.66333 36.2926L4.64073 37.7756L8.84269 32.1771V30.5297C8.84367 29.5467 9.23461 28.6042 9.92971 27.9091C10.6248 27.214 11.5673 26.8231 12.5503 26.8221H21.2014C21.5292 26.8221 21.8435 26.9523 22.0753 27.1841C22.3071 27.4158 22.4373 27.7302 22.4373 28.058C22.4373 28.3857 22.3071 28.7001 22.0753 28.9319C21.8435 29.1636 21.5292 29.2938 21.2014 29.2938H16.2579V31.7656H22.3495C22.999 31.7673 23.6423 31.6402 24.2422 31.3916C24.8422 31.143 25.3868 30.7778 25.8446 30.3171L32.6864 23.4766C32.8008 23.3614 32.937 23.2701 33.087 23.208C33.237 23.1458 33.3978 23.114 33.5601 23.1145H33.5639C33.8079 23.1153 34.0463 23.1883 34.2489 23.3244C34.4516 23.4605 34.6094 23.6535 34.7024 23.8791C34.7955 24.1048 34.8196 24.3529 34.7718 24.5923C34.7241 24.8316 34.6065 25.0515 34.4339 25.2241L25.2711 34.3869C24.9276 34.7324 24.5189 35.0064 24.0688 35.1928C23.6186 35.3793 23.1359 35.4746 22.6486 35.4732H13.7862V37.9449H22.6486C23.4606 37.9472 24.2649 37.7884 25.0151 37.4776C25.7652 37.1668 26.4462 36.7103 27.0187 36.1344L36.1814 26.9716C36.5257 26.6274 36.7989 26.2188 36.9852 25.769C37.1716 25.3193 37.2675 24.8372 37.2675 24.3503C37.2675 23.8635 37.1716 23.3814 36.9852 22.9317C36.7989 22.4819 36.5257 22.0732 36.1814 21.7291ZM26.8691 11.48L22.4373 15.6992V3.34052H19.9655V15.6992L15.5337 11.48L13.7862 13.2275L21.2014 20.6427L28.6167 13.2275L26.8691 11.48Z" fill="#B3B3B3"/>
</g>
</svg>
