<svg width="23" height="20" viewBox="0 0 23 20" fill="none" xmlns="http://www.w3.org/2000/svg">
<path id="Vector" d="M11.2055 16.1018C12.5581 16.1018 13.708 15.6285 14.6552 14.6821C15.6016 13.7349 16.0749 12.585 16.0749 11.2324C16.0749 9.87984 15.6016 8.72996 14.6552 7.78278C13.708 6.83632 12.5581 6.3631 11.2055 6.3631C9.85293 6.3631 8.70304 6.83632 7.75586 7.78278C6.80941 8.72996 6.33618 9.87984 6.33618 11.2324C6.33618 12.585 6.80941 13.7349 7.75586 14.6821C8.70304 15.6285 9.85293 16.1018 11.2055 16.1018ZM11.2055 13.9376C10.4481 13.9376 9.80784 13.6761 9.28484 13.1531C8.76183 12.6301 8.50033 11.9899 8.50033 11.2324C8.50033 10.475 8.76183 9.83476 9.28484 9.31175C9.80784 8.78875 10.4481 8.52725 11.2055 8.52725C11.963 8.52725 12.6032 8.78875 13.1262 9.31175C13.6492 9.83476 13.9107 10.475 13.9107 11.2324C13.9107 11.9899 13.6492 12.6301 13.1262 13.1531C12.6032 13.6761 11.963 13.9376 11.2055 13.9376ZM2.54892 19.889C1.95377 19.889 1.44448 19.6773 1.02103 19.2539C0.596852 18.8297 0.384766 18.32 0.384766 17.7249V4.73998C0.384766 4.14484 0.596852 3.63555 1.02103 3.21209C1.44448 2.78792 1.95377 2.57583 2.54892 2.57583H5.95745L7.95929 0.411682H14.4517L16.4536 2.57583H19.8621C20.4573 2.57583 20.9669 2.78792 21.3911 3.21209C21.8145 3.63555 22.0263 4.14484 22.0263 4.73998V17.7249C22.0263 18.32 21.8145 18.8297 21.3911 19.2539C20.9669 19.6773 20.4573 19.889 19.8621 19.889H2.54892ZM19.8621 17.7249V4.73998H15.4797L13.5049 2.57583H8.90611L6.93132 4.73998H2.54892V17.7249H19.8621Z" fill="white"/>
</svg>
