<svg width="39" height="39" viewBox="0 0 39 39" fill="none" xmlns="http://www.w3.org/2000/svg">
<g id="chats" clip-path="url(#clip0_3_89)">
<path id="Vector" d="M19.7616 3.91114C17.1074 3.91094 14.4989 4.60198 12.193 5.91624C9.88704 7.23049 7.96313 9.12264 6.61068 11.4064C5.25822 13.6901 4.52386 16.2867 4.47988 18.9405C4.43591 21.5944 5.08384 24.2139 6.35988 26.5412L5.11082 30.9496C4.9943 31.3513 4.98775 31.777 5.09186 32.1821C5.19596 32.5872 5.4069 32.9569 5.70266 33.2527C5.99843 33.5484 6.36816 33.7594 6.77326 33.8635C7.17837 33.9676 7.60399 33.961 8.0057 33.8445L12.4141 32.5954C14.4571 33.7152 16.7291 34.353 19.0564 34.4602C21.3837 34.5674 23.7046 34.1411 25.8419 33.2138C27.9792 32.2866 29.8762 30.883 31.3879 29.1103C32.8996 27.3376 33.986 25.2428 34.5641 22.9859C35.1422 20.7291 35.1967 18.3699 34.7233 16.0887C34.25 13.8076 33.2614 11.6649 31.8331 9.82432C30.4047 7.98378 28.5745 6.49414 26.4823 5.46928C24.3901 4.44442 22.0913 3.91146 19.7616 3.91114ZM19.7616 32.1252C17.4402 32.1231 15.1619 31.4989 13.1636 30.3177C12.9792 30.2149 12.7722 30.1594 12.5611 30.1561C12.4518 30.1562 12.3431 30.1711 12.2378 30.2002L7.35913 31.5962L8.75514 26.7175C8.79808 26.5631 8.8098 26.4017 8.78962 26.2428C8.76943 26.0838 8.71774 25.9305 8.63758 25.7917C7.18184 23.3379 6.57848 20.4716 6.92147 17.6392C7.26446 14.8068 8.53454 12.1673 10.5339 10.1319C12.5332 8.09651 15.1496 6.77947 17.9754 6.38592C20.8013 5.99238 23.6779 6.54443 26.1573 7.95608C28.6367 9.36774 30.5797 11.5597 31.6835 14.1907C32.7874 16.8216 32.9902 19.7437 32.2603 22.5019C31.5304 25.2601 29.9088 27.6994 27.6482 29.44C25.3875 31.1806 22.6147 32.1247 19.7616 32.1252ZM25.6395 16.8426C25.6395 17.1544 25.5156 17.4534 25.2952 17.6739C25.0747 17.8943 24.7757 18.0182 24.4639 18.0182H15.0592C14.7474 18.0182 14.4484 17.8943 14.228 17.6739C14.0075 17.4534 13.8836 17.1544 13.8836 16.8426C13.8836 16.5308 14.0075 16.2318 14.228 16.0113C14.4484 15.7909 14.7474 15.667 15.0592 15.667H24.4639C24.7757 15.667 25.0747 15.7909 25.2952 16.0113C25.5156 16.2318 25.6395 16.5308 25.6395 16.8426ZM25.6395 21.5449C25.6395 21.8567 25.5156 22.1557 25.2952 22.3762C25.0747 22.5967 24.7757 22.7205 24.4639 22.7205H15.0592C14.7474 22.7205 14.4484 22.5967 14.228 22.3762C14.0075 22.1557 13.8836 21.8567 13.8836 21.5449C13.8836 21.2331 14.0075 20.9341 14.228 20.7137C14.4484 20.4932 14.7474 20.3693 15.0592 20.3693H24.4639C24.7757 20.3693 25.0747 20.4932 25.2952 20.7137C25.5156 20.9341 25.6395 21.2331 25.6395 21.5449Z" fill="white"/>
<circle id="Ellipse 2" cx="31.8187" cy="7.13647" r="6.75208" fill="#FF0F0F"/>
</g>
<defs>
<clipPath id="clip0_3_89">
<rect width="37.6188" height="37.6188" fill="white" transform="translate(0.952148 0.384377)"/>
</clipPath>
</defs>
</svg>
