<svg width="36" height="36" viewBox="0 0 36 36" fill="none" xmlns="http://www.w3.org/2000/svg">
<g id="clarity:upload-cloud-line" clip-path="url(#clip0_8_347)">
<path id="Vector" d="M30.2448 12.796V12.4831C30.1781 9.8337 29.066 7.31831 27.1513 5.48602C25.2365 3.65372 22.6746 2.65334 20.0249 2.70326C18.0515 2.68716 16.1155 3.24166 14.4499 4.30003C12.7842 5.35841 11.4599 6.87557 10.6363 8.66894C8.31732 8.92763 6.17394 10.0285 4.6128 11.7627C3.05166 13.4969 2.18136 15.7438 2.16699 18.0771C2.16956 19.3134 2.41577 20.5371 2.89156 21.6782C3.36735 22.8193 4.06338 23.8555 4.93986 24.7274C5.81635 25.5994 6.85609 26.29 7.99966 26.7599C9.14322 27.2297 10.3682 27.4696 11.6045 27.4657H15.2719V25.5098H11.6045C9.7142 25.4075 7.93296 24.5924 6.61982 23.2288C5.30668 21.8652 4.55928 20.0545 4.52827 18.1617C4.49726 16.2689 5.18495 14.4347 6.45272 13.0288C7.72049 11.623 9.47407 10.75 11.36 10.5858H12.0153L12.2402 9.96965C12.8467 8.39426 13.9223 7.04303 15.3215 6.09857C16.7207 5.15411 18.3761 4.66193 20.064 4.68856C22.1951 4.63849 24.2596 5.43277 25.8075 6.89829C27.3555 8.36382 28.2615 10.3818 28.328 12.5124C28.3414 12.773 28.3414 13.0342 28.328 13.2948L28.2497 13.9989L28.8854 14.2923C30.1149 14.8462 31.1161 15.8067 31.7205 17.0121C32.325 18.2176 32.4958 19.5944 32.2042 20.911C31.9127 22.2276 31.1765 23.4036 30.1197 24.2412C29.0628 25.0787 27.7497 25.5267 26.4013 25.5098H21.1398V27.4657H26.4013C28.1407 27.4782 29.8345 26.9107 31.2153 25.853C32.5961 24.7953 33.585 23.3076 34.0259 21.625C34.4667 19.9424 34.3343 18.1609 33.6495 16.562C32.9648 14.9631 31.7668 13.638 30.2448 12.796Z" fill="white"/>
<path id="Vector_2" d="M22.3914 21.4512C22.5865 21.4543 22.778 21.399 22.9414 21.2923C23.1048 21.1857 23.2326 21.0326 23.3083 20.8528C23.384 20.673 23.4042 20.4746 23.3663 20.2833C23.3284 20.0919 23.2341 19.9162 23.0955 19.7788L18.2056 14.8889L13.3157 19.7788C13.1555 19.9659 13.0718 20.2066 13.0813 20.4527C13.0908 20.6988 13.1928 20.9323 13.367 21.1065C13.5412 21.2807 13.7747 21.3827 14.0208 21.3922C14.2669 21.4017 14.5076 21.318 14.6947 21.1578L17.2277 18.6639V30.6442C17.2277 30.9036 17.3307 31.1523 17.5141 31.3357C17.6975 31.5191 17.9463 31.6222 18.2056 31.6222C18.465 31.6222 18.7138 31.5191 18.8972 31.3357C19.0806 31.1523 19.1836 30.9036 19.1836 30.6442V18.6639L21.697 21.1773C21.8832 21.3568 22.1328 21.4553 22.3914 21.4512Z" fill="white"/>
</g>
<defs>
<clipPath id="clip0_8_347">
<rect width="35.2073" height="35.2073" fill="white" transform="translate(0.602051 0.0822754)"/>
</clipPath>
</defs>
</svg>
