<svg width="23" height="23" viewBox="0 0 23 23" fill="none" xmlns="http://www.w3.org/2000/svg">
<path id="Vector" d="M16.8645 16.8182V6.78251L10.2329 11.8004M0.528839 8.77196C0.368425 8.60044 0.27736 8.3755 0.273276 8.1407C0.269193 7.90589 0.352381 7.67792 0.506734 7.50092L1.83304 6.27409C2.05409 6.07515 2.59566 5.98673 2.99355 6.27409L6.77351 9.1588L15.5382 1.14573C15.8918 0.792045 16.4997 0.648363 17.196 1.0131L21.617 3.12413C22.0149 3.35623 22.3907 3.72096 22.3907 4.39517V19.3161C22.3907 19.7582 22.0702 20.2334 21.7276 20.4213L16.8645 22.7423C16.5108 22.886 15.8476 22.7534 15.6155 22.5213L6.75141 14.453L2.99355 17.3266C2.57355 17.614 2.05409 17.5366 1.83304 17.3266L0.506734 16.1108C0.153053 15.7461 0.197263 15.1493 0.561996 14.7845L3.87775 11.8004" fill="white"/>
</svg>
