<svg width="23" height="22" viewBox="0 0 23 22" fill="none" xmlns="http://www.w3.org/2000/svg">
<path id="Vector" d="M8.52412 0.668621C6.58712 0.658372 4.70136 2.52364 5.56225 4.83984H2.31341C1.76979 4.83984 1.24843 5.0558 0.864027 5.4402C0.479626 5.8246 0.263672 6.34596 0.263672 6.88958V8.93932C0.263672 9.21113 0.371649 9.47181 0.563849 9.66401C0.75605 9.85621 1.01673 9.96419 1.28854 9.96419H10.5124V6.88958H12.5621V9.96419H21.7859C22.0578 9.96419 22.3184 9.85621 22.5106 9.66401C22.7028 9.47181 22.8108 9.21113 22.8108 8.93932V6.88958C22.8108 6.34596 22.5949 5.8246 22.2105 5.4402C21.8261 5.0558 21.3047 4.83984 20.7611 4.83984H17.5122C18.7113 1.48852 14.2019 -0.878932 12.1214 2.0112L11.5372 2.7901L10.9531 1.9907C10.3074 1.07857 9.41576 0.67887 8.52412 0.668621ZM8.46263 2.7901C9.37476 2.7901 9.83596 3.89696 9.19029 4.54263C8.54462 5.1883 7.43776 4.72711 7.43776 3.81497C7.43776 3.54316 7.54574 3.28248 7.73794 3.09028C7.93014 2.89808 8.19082 2.7901 8.46263 2.7901ZM14.6118 2.7901C15.524 2.7901 15.9852 3.89696 15.3395 4.54263C14.6938 5.1883 13.587 4.72711 13.587 3.81497C13.587 3.54316 13.695 3.28248 13.8872 3.09028C14.0794 2.89808 14.34 2.7901 14.6118 2.7901ZM1.28854 10.9891V19.188C1.28854 19.7316 1.5045 20.253 1.8889 20.6374C2.2733 21.0218 2.79466 21.2378 3.33828 21.2378H19.7362C20.2798 21.2378 20.8012 21.0218 21.1856 20.6374C21.57 20.253 21.7859 19.7316 21.7859 19.188V10.9891H12.5621V19.188H10.5124V10.9891H1.28854Z" fill="white"/>
</svg>
