<svg width="20" height="20" viewBox="0 0 20 20" fill="none" xmlns="http://www.w3.org/2000/svg">
<path id="Vector" d="M10.7173 12.5603C11.2066 12.5603 11.6758 12.7546 12.0218 13.1006C12.3678 13.4466 12.5621 13.9158 12.5621 14.405V15.02C12.5621 17.444 10.2746 19.9393 6.41289 19.9393C2.55118 19.9393 0.263672 17.444 0.263672 15.02V14.405C0.263672 13.9158 0.458031 13.4466 0.803991 13.1006C1.14995 12.7546 1.61918 12.5603 2.10844 12.5603H10.7173ZM6.41289 4.56629C7.30987 4.56629 8.17011 4.92262 8.80438 5.55688C9.43864 6.19114 9.79496 7.05138 9.79496 7.94836C9.79496 8.84534 9.43864 9.70559 8.80438 10.3398C8.17011 10.9741 7.30987 11.3304 6.41289 11.3304C5.51591 11.3304 4.65567 10.9741 4.02141 10.3398C3.38714 9.70559 3.03082 8.84534 3.03082 7.94836C3.03082 7.05138 3.38714 6.19114 4.02141 5.55688C4.65567 4.92262 5.51591 4.56629 6.41289 4.56629ZM17.4815 0.261841C18.1018 0.261955 18.6992 0.49646 19.154 0.918377C19.6087 1.34029 19.8873 1.91846 19.9338 2.53705L19.9412 2.72153V5.18122C19.9414 5.80177 19.707 6.39946 19.2851 6.85448C18.8631 7.3095 18.2848 7.58821 17.666 7.63475L17.4815 7.6409H15.6355L14.1621 9.60865C13.5103 10.4769 12.1895 10.1252 11.9767 9.14623L11.9558 9.00972L11.9472 8.87075V7.56096L11.8513 7.53637C11.4092 7.40244 11.0137 7.14692 10.7099 6.79898C10.4061 6.45104 10.2063 6.0247 10.1332 5.56862L10.1086 5.36446L10.1024 5.18122V2.72153C10.1022 2.10098 10.3366 1.50329 10.7585 1.04827C11.1805 0.593248 11.7588 0.314531 12.3776 0.26799L12.5621 0.261841H17.4815Z" fill="white"/>
</svg>
