<svg width="29" height="35" viewBox="0 0 29 35" fill="none" xmlns="http://www.w3.org/2000/svg">
<g id="Group">
<path id="Vector" d="M20.7559 18.2906V5.10792C20.7559 4.23385 20.4087 3.39559 19.7906 2.77753C19.1726 2.15948 18.3343 1.81226 17.4602 1.81226H14.1646M14.1646 1.81226H4.27759C3.40353 1.81226 2.56527 2.15948 1.94721 2.77753C1.32915 3.39559 0.981934 4.23385 0.981934 5.10792V24.8819C0.981934 25.7559 1.32915 26.5942 1.94721 27.2123C2.56527 27.8303 3.40353 28.1775 4.27759 28.1775H15.8124M14.1646 1.81226V19.1145M7.57325 8.40358V13.3471" stroke="white" stroke-width="1.92917" stroke-linecap="round" stroke-linejoin="round"/>
<path id="Vector_2" d="M27.3472 33.121V21.4214C27.3468 19.9064 27.048 18.4062 26.4679 17.0067C25.8877 15.6071 25.0375 14.3356 23.9658 13.2647L20.7525 10.0514V20.9056C20.7525 22.3722 18.9778 23.1088 17.9397 22.0707L15.8058 19.9384C14.9818 19.1145 13.0028 18.6201 11.6829 19.9384C10.3646 21.2566 10.859 23.234 11.6829 24.0579L20.7509 33.121" stroke="white" stroke-width="1.92917" stroke-linecap="round" stroke-linejoin="round"/>
</g>
</svg>
