<svg width="24" height="24" viewBox="0 0 24 24" fill="none" xmlns="http://www.w3.org/2000/svg">
<path id="Vector" d="M0.263672 20.7243C0.263672 21.3839 0.492329 22.0164 0.899342 22.4828C1.30635 22.9491 1.85838 23.2111 2.43398 23.2111H21.2434C21.819 23.2111 22.371 22.9491 22.778 22.4828C23.185 22.0164 23.4137 21.3839 23.4137 20.7243V9.11918C23.4137 8.45964 23.185 7.82711 22.778 7.36074C22.371 6.89437 21.819 6.63237 21.2434 6.63237H2.43398C1.85838 6.63237 1.30635 6.89437 0.899342 7.36074C0.492329 7.82711 0.263672 8.45964 0.263672 9.11918L0.263672 20.7243ZM3.15742 4.14555C3.15742 4.3654 3.23364 4.57624 3.36931 4.7317C3.50498 4.88715 3.68899 4.97449 3.88086 4.97449H19.7965C19.9884 4.97449 20.1724 4.88715 20.308 4.7317C20.4437 4.57624 20.5199 4.3654 20.5199 4.14555C20.5199 3.9257 20.4437 3.71486 20.308 3.5594C20.1724 3.40394 19.9884 3.31661 19.7965 3.31661H3.88086C3.68899 3.31661 3.50498 3.40394 3.36931 3.5594C3.23364 3.71486 3.15742 3.9257 3.15742 4.14555ZM6.05117 0.829793C6.05117 1.04964 6.12739 1.26049 6.26306 1.41594C6.39873 1.5714 6.58274 1.65873 6.77461 1.65873H16.9027C17.0946 1.65873 17.2786 1.5714 17.4143 1.41594C17.55 1.26049 17.6262 1.04964 17.6262 0.829793C17.6262 0.609945 17.55 0.399101 17.4143 0.243645C17.2786 0.0881888 17.0946 0.000854492 16.9027 0.000854492H6.77461C6.58274 0.000854492 6.39873 0.0881888 6.26306 0.243645C6.12739 0.399101 6.05117 0.609945 6.05117 0.829793Z" fill="white"/>
</svg>
