<svg width="49" height="49" viewBox="0 0 49 49" fill="none" xmlns="http://www.w3.org/2000/svg">
<g id="material-symbols:add-box-outline-rounded">
<path id="Vector" d="M26.2305 25.9087H25.7482V26.391V32.3594C25.7482 32.8018 25.604 33.1492 25.3185 33.4348C25.0312 33.722 24.683 33.8665 24.241 33.8665C23.7991 33.8665 23.4518 33.7221 23.1662 33.4354L23.165 33.4342C22.8783 33.1485 22.7339 32.8013 22.7339 32.3594V26.391V25.9087H22.2516H16.2832C15.8412 25.9087 15.493 25.7642 15.2058 25.477C14.9202 25.1914 14.776 24.844 14.776 24.4015C14.776 23.9594 14.92 23.6111 15.2058 23.3241C15.4928 23.0384 15.841 22.8944 16.2832 22.8944H22.2516H22.7339V22.4121V16.4437C22.7339 16.0018 22.8783 15.6535 23.1656 15.3663C23.4511 15.0807 23.7985 14.9366 24.241 14.9366C24.6833 14.9366 25.0315 15.0806 25.3186 15.3664C25.6042 15.6534 25.7482 16.0016 25.7482 16.4437V22.4121V22.8944H26.2305H32.1988C32.6413 22.8944 32.9887 23.0385 33.2743 23.3241C33.5615 23.6113 33.706 23.9596 33.706 24.4015C33.706 24.8435 33.5616 25.1907 33.2749 25.4764L33.2737 25.4776C32.988 25.7643 32.6408 25.9087 32.1988 25.9087H26.2305ZM9.83255 38.3277V38.81H10.3148H38.1672H38.6495V38.3277V10.4754V9.99307H38.1672H10.3148H9.83255V10.4754V38.3277ZM10.3148 41.8243C9.34943 41.8243 8.53465 41.4865 7.84449 40.7975C7.15589 40.1074 6.81823 39.2929 6.81823 38.3277V10.4754C6.81823 9.51009 7.15598 8.6954 7.84478 8.0053C8.53488 7.31651 9.34957 6.97875 10.3148 6.97875H38.1672C39.1323 6.97875 39.9469 7.31641 40.637 8.00501C41.326 8.69517 41.6638 9.50995 41.6638 10.4754V38.3277C41.6638 39.293 41.326 40.1077 40.6373 40.7978C39.9472 41.4866 39.1325 41.8243 38.1672 41.8243H10.3148Z" fill="#B3B3B3" stroke="#144272" stroke-width="0.964583"/>
</g>
</svg>
